<svg xmlns="http://www.w3.org/2000/svg" width="80" height="80" viewBox="0 0 80 80" fill="none">
  <path d="M40 53.3334C46.6666 53.3334 51.6666 46.6667 51.6666 40.0001C51.6666 33.3334 46.6666 26.6667 40 26.6667C33.3333 26.6667 28.3333 33.3334 28.3333 40.0001C28.3333 46.6667 33.3333 53.3334 40 53.3334Z" fill="#BFA8D9" stroke="#BFA8D9" stroke-width="2" stroke-linecap="round" stroke-linejoin="round"/>
  <path d="M18.3334 40.0001C18.3334 40.0001 26.6668 26.6667 40.0001 26.6667C53.3334 26.6667 61.6668 40.0001 61.6668 40.0001C61.6668 40.0001 53.3334 53.3334 40.0001 53.3334C26.6668 53.3334 18.3334 40.0001 18.3334 40.0001Z" stroke="#BFA8D9" stroke-width="2" stroke-linecap="round" stroke-linejoin="round"/>
  <path d="M40.0002 13.3334C36.6668 18.3334 35.0002 24.0001 35.0002 30.0001C35.0002 36.0001 36.6668 41.6667 40.0002 46.6667C43.3335 41.6667 45.0002 36.0001 45.0002 30.0001C45.0002 24.0001 43.3335 18.3334 40.0002 13.3334Z" stroke="#BFA8D9" stroke-width="2" stroke-linecap="round" stroke-linejoin="round"/>
  <path d="M23.3334 20.0001C28.3334 23.3334 32.5001 27.5001 35.8334 32.5001C39.1667 37.5001 41.1667 42.5001 41.6667 47.5001C46.6667 44.1667 50.8334 40.0001 54.1667 35.0001C57.5001 30.0001 59.5001 25.0001 60.0001 20.0001C55.0001 23.3334 50.8334 27.5001 47.5001 32.5001C44.1667 37.5001 42.1667 42.5001 41.6667 47.5001C36.6667 44.1667 32.5001 40.0001 29.1667 35.0001C25.8334 30.0001 23.8334 25.0001 23.3334 20.0001Z" stroke="#BFA8D9" stroke-width="2" stroke-linecap="round" stroke-linejoin="round"/>
  <path d="M20.0001 60.0001C25.0001 56.6667 30.8334 55.0001 37.5001 55.0001C44.1667 55.0001 50.0001 56.6667 55.0001 60.0001C50.0001 63.3334 44.1667 65.0001 37.5001 65.0001C30.8334 65.0001 25.0001 63.3334 20.0001 60.0001Z" stroke="#BFA8D9" stroke-width="2" stroke-linecap="round" stroke-linejoin="round"/>
  <path d="M40.0002 63.3334V70.0001" stroke="#BFA8D9" stroke-width="2" stroke-linecap="round" stroke-linejoin="round"/>
</svg> 