<svg xmlns="http://www.w3.org/2000/svg" viewBox="0 0 860.46 1200.6125" x="0px" y="0px"><g><path d="M765.53,573.68v-186.87c52.64-1.74,94.93-45.1,94.93-98.16s-44.06-98.22-98.22-98.22c-35.03,0-65.83,18.44-83.22,46.12l-161.54-93.27c7.01-13.51,10.97-28.83,10.97-45.07,0-54.16-44.06-98.22-98.22-98.22s-98.22,44.06-98.22,98.22c0,16.24,3.96,31.56,10.97,45.07l-161.54,93.27c-17.39-27.68-48.19-46.12-83.22-46.12C44.06,190.44,0,234.5,0,288.65s42.29,96.41,94.93,98.16v186.87c-52.64,1.74-94.93,45.1-94.93,98.16s44.06,98.22,98.22,98.22c35.13,0,66-18.54,83.36-46.34l161.52,93.26c-7.08,13.56-11.09,28.97-11.09,45.3,0,54.16,44.06,98.22,98.22,98.22s98.22-44.06,98.22-98.22c0-16.33-4.01-31.74-11.09-45.3l161.52-93.26c17.36,27.8,48.24,46.34,83.36,46.34,54.16,0,98.22-44.06,98.22-98.22s-42.29-96.41-94.93-98.16Zm-135.14,94c10.18-3.74,19.57-9.13,27.86-15.84l7.53,1.45c-.9,4.69-1.46,9.49-1.67,14.39h-33.72Zm-434.06,0c-.19-4.51-.68-8.94-1.46-13.27l8.84-1.7c8.02,6.31,17.04,11.39,26.79,14.98h-34.17Zm35.14-376.37c-9.67,3.44-18.64,8.35-26.65,14.47l-9.59-1.85c.65-4.13,1.04-8.34,1.15-12.63h35.08Zm432.58,0c.12,4.67,.58,9.26,1.34,13.75l-8.21,1.58c-8.29-6.52-17.65-11.73-27.76-15.33h34.63ZM176.06,622.43l-61.62,35.58,46.51-53.7c5.77,5.36,10.85,11.45,15.1,18.13Zm-11.18-22.66l3.37-3.89c.72,3.4,1.62,6.74,2.69,10-1.93-2.12-3.95-4.16-6.06-6.11Zm8.39-9.69l57.69-66.61,29.12,50.44-77.28,44.62c-4.64-8.75-7.92-18.33-9.54-28.45Zm-1.16-14.62c0-33.03,17.46-62.06,43.64-78.35l12.05,20.86-55.45,64.02c-.15-2.16-.23-4.34-.23-6.53Zm0-191.59c0-2.53,.11-5.03,.31-7.51l55.62,64.22-12.44,21.55c-26.09-16.31-43.49-45.29-43.49-78.26Zm-10.1-28.69l-46.33-53.49,61.06,35.26c-4.13,6.69-9.09,12.82-14.73,18.23Zm8.37,.02c-.74,2.43-1.39,4.89-1.94,7.39l-2.49-2.88c1.53-1.46,3-2.97,4.44-4.52Zm12.57-14.68l77.14,44.54-28.87,50.01-57.79-66.72c1.68-9.9,4.95-19.26,9.53-27.82Zm500.46-4.09l64.57-37.28-48.97,56.54c-6.02-5.68-11.28-12.15-15.6-19.26Zm11.67,23.79l-2.49,2.87c-.53-2.43-1.14-4.83-1.84-7.2,1.4,1.49,2.84,2.93,4.33,4.33Zm-7.49,8.65l-57.93,66.88-29.29-50.73v-.63s0,0,0-.01l77.22-44.58c4.87,8.91,8.3,18.71,10,29.08Zm1.22,14.98c0,33.11-17.54,62.2-43.82,78.46l-12.16-21.06,55.72-64.33c.17,2.29,.26,4.6,.26,6.93Zm0,191.59c0,1.99-.07,3.97-.2,5.94l-55.53-64.11,11.76-20.38c26.36,16.25,43.97,45.38,43.97,78.55Zm-59.89-62.98l-25.08-28.96c12.85,1,24.96,4.65,35.8,10.4l-10.71,18.56Zm-138.41,58.64l10.45-18.09c-1.37,5.85-2.22,11.9-2.49,18.09h-7.96Zm-125.79,18.1l-2.75-3.17c.32-2.94,.5-5.91,.55-8.92h10.28l6.29,10.89c-1.6,.98-3.16,2-4.7,3.07l-9.68-1.86Zm134.2-226.81l-1.71-1.98c1.92-1.79,3.77-3.66,5.55-5.6-.8,2.59-1.5,5.24-2.09,7.92l-1.75-.34Zm-3.17,5.5l3.37,3.89c-.35,2.88-.58,5.79-.68,8.74h-11.69l-4.84-8.38c2.7-1.68,5.31-3.48,7.83-5.4l6.01,1.16Zm-200.5,110.92l-1.06,3.07c-2.67-.85-5.39-1.6-8.15-2.22,2.94-.67,5.84-1.47,8.67-2.39l.54,1.55Zm6.35,0l1.66-4.79c2.67-1.16,5.29-2.43,7.84-3.81l5.14,8.91-5.61,9.72c-2.18-1.17-4.41-2.26-6.68-3.26l-2.35-6.77Zm10.71-49.25l-6.43,18.56-3.86-6.68,10.29-11.88Zm-13.46,6.38l-24.69-42.76,41.15,23.76-16.46,19Zm22.9-15.29l20.8,12.01c-7.32,11.69-17.19,21.64-28.82,29.04l-3.87-6.71,11.89-34.34Zm102.72,150.46c-30.57-1.9-57.15-18.75-72.49-43.32l75.27-43.45v86.77h-2.77Zm2.77-184.06v87.58l-75.64-43.67c15.29-24.89,42.05-42,72.87-43.91h2.77Zm-78.61,49.13l75.01,43.31-74.69,43.12c-6.97-12.97-10.94-27.79-10.94-43.53s3.84-30.08,10.61-42.9Zm84.61-49.13h2.77c30.44,1.89,56.93,18.61,72.3,43.01l.23,.41-75.31,43.48v-86.9Zm97.45,69.57c4.09,3.7,8.48,7.07,13.15,10.05l-3.67,6.36-9.48-16.41Zm-12.74-24.65l20.59-11.89,12.07,34.86-3.77,6.53c-11.7-7.53-21.6-17.63-28.89-29.5Zm-24.88-28.33c-8.43-7.03-18.05-12.68-28.52-16.59h18.94l9.58,16.59Zm-97.13-16.59c-10.55,3.95-20.25,9.66-28.73,16.77l9.68-16.77h19.05Zm-67.74,71.37l-8.18,14.17-3.29-5.69c4.03-2.55,7.86-5.39,11.47-8.48Zm5.27,3.84c-.95,5.47-1.45,11.09-1.45,16.82s.5,11.36,1.45,16.82l-9.71-16.82,9.71-16.82Zm62.47,108.86h-19.05l-9.68-16.77c8.48,7.12,18.18,12.83,28.73,16.77Zm8.29,6c-6.8,1.87-13.31,4.46-19.44,7.67l-4.43-7.67h23.87Zm29.01-6v-86.09l74.95,43.27c-15.39,24.29-41.82,40.93-72.18,42.81h-2.77Zm78-47.98l-75.59-43.64,75.9-43.82,.33,.56c6.75,12.81,10.58,27.39,10.58,42.85s-4.06,30.91-11.19,43.99l-.03,.06Zm15.82-60.61l9.59,16.61-9.61,16.65c.93-5.43,1.43-11,1.43-16.69s-.48-11.18-1.4-16.56Zm27.52-14.45l-7.07-20.42,11.32,13.07-4.25,7.36Zm-9.14-31.97l41.39-23.9-24.83,43.01-16.56-19.12Zm-3.61-4.84l-8.38-24.2h50.31l-41.92,24.2Zm-10.19-11.1l-11.35-13.11h6.81l4.54,13.11Zm4.51,14.38l-21.17,12.22c-6.3-11.94-10.05-25.41-10.54-39.71h7.91l23.8,27.48Zm-35.6-10.11l-10.03-17.37h7.91c.19,5.94,.91,11.74,2.11,17.37Zm-20.83-23.9h-14.75c4.02-1.53,7.92-3.31,11.68-5.33l3.07,5.33Zm-41.54,0h-4.93v-24.66h0l36.26,6.98,4.13,7.16c-10.74,5.75-22.73,9.43-35.46,10.52Zm10.94-27.72l13.14-2.53,3.29,5.69-16.43-3.16Zm-15.87-3.06h0v-49.72l25.83,44.74-25.83,4.97Zm-6-1.16l-25.33-4.88,25.33-43.87v48.75Zm-9.87,4.21l-23.3,4.49,4.66-8.07,18.64,3.59Zm9.87,4.21v23.51h-4.93c-12.76-1.09-24.79-4.79-35.55-10.57l3.34-5.79,37.13-7.15Zm-31.72,23.51h-14.86l3.1-5.37c3.78,2.04,7.71,3.83,11.76,5.37Zm-26.12,6.53l-8.49,14.7c.88-4.79,1.42-9.7,1.58-14.7h6.91Zm-23.84,40.43l-20.96-12.1,24.53-28.33h7.35c-.5,14.58-4.39,28.32-10.92,40.43Zm-17.39-25.4l5.21-15.03h7.81l-13.02,15.03Zm-9.72,9.75l-42.91-24.78h51.49l-8.58,24.78Zm108.79,167.84v21.58l-37.07-7.14-2.38-4.12c11.88-6.19,25.27-9.86,39.46-10.32Zm-9.87,25.79l-18.59,3.58-4.65-8.05,23.24,4.47Zm9.87,4.21v48.66l-25.28-43.79,25.28-4.87Zm6-30c14.17,.46,27.54,4.12,39.41,10.3l-3.15,5.46-36.26,6.98v-22.74Zm23.01-2.55h23.82l-4.42,7.65c-6.12-3.2-12.61-5.78-19.4-7.65Zm8.29-6c10.51-3.93,20.17-9.61,28.62-16.68l-9.63,16.68h-18.99Zm88.68-108.61l1.16,3.34c-.79-.41-1.58-.83-2.35-1.26l1.2-2.07Zm-245.13,2.52c-.69,.37-1.39,.74-2.09,1.1l1.02-2.95,1.07,1.86Zm-.47,29.03l-.47,.81-.45-1.29c.31,.16,.61,.32,.91,.48Zm-1.63,15.79l6.67,19.27-10.68-12.33,4.01-6.94Zm13.99-24.23l9.45,16.37c-4.11-3.64-8.52-6.95-13.2-9.87l3.75-6.49Zm113.25,122.9l25.83,4.97-25.83,44.74v-49.72Zm15.87-3.06l16.43-3.16-3.29,5.69-13.14-2.53Zm91.03-120.28l4.15,7.19c-5.39,3.4-10.42,7.31-15.04,11.67l10.89-18.86Zm18.69,32.37l-11.68,13.49,7.3-21.08,4.38,7.59Zm-6.29-23.08c.38-.21,.76-.4,1.14-.6l-.56,1.61-.58-1Zm-3-5.2l-5.88-10.19,5.38-9.31c2.63,1.46,5.34,2.81,8.11,4.03l1.74,5.02-2.43,7c-2.36,1.06-4.66,2.21-6.92,3.45Zm15.69-10.45l.58-1.68c2.97,.98,5.99,1.83,9.08,2.52-2.9,.66-5.75,1.45-8.55,2.35l-1.11-3.2Zm2.55-7.35l5.05-14.59,16.38,18.91c-7.42-.59-14.6-2.07-21.43-4.32Zm-5.63-2.07c-.07-.03-.13-.06-.2-.08l-4.74-13.69,5.82-10.08,5.28,6.09-6.15,17.76Zm4.05-29.35l15.28-26.47-10.91,31.51-4.37-5.04Zm-61.75-59.53c.03-.82,.07-1.64,.12-2.45l2.12,2.45h-2.25Zm-25.53-13.58l-1.49-2.58,4.22,.81c-.9,.61-1.81,1.19-2.73,1.77Zm-97.75-.26c-.32-.2-.64-.41-.96-.61l1.48-.29-.52,.9Zm-3,5.2l-4.99,8.64h-10.68c-.09-2.75-.3-5.48-.62-8.17l2.86-3.3,7.23-1.39c2.01,1.49,4.08,2.89,6.2,4.23Zm-16.61-8.33l-1.07,.21c-.58-2.79-1.29-5.54-2.1-8.24,1.74,1.87,3.56,3.68,5.44,5.41l-2.27,2.62Zm-5.07,16.97h-1.69l1.61-1.86c.03,.62,.06,1.24,.08,1.86Zm-62.16,60.65l-4.11,4.75-10.28-29.68,14.39,24.93Zm3.17,5.5l5.56,9.62-4.58,13.24s-.05,.02-.07,.03l-5.92-17.1,5.02-5.8Zm-4.75,24.93c-6.52,2.12-13.36,3.53-20.43,4.14l15.62-18.03,4.81,13.89Zm-.52,15.96l-4.44,12.83-14.47-16.7c6.52,.63,12.85,1.95,18.91,3.88Zm5.66,2c.42,.17,.85,.34,1.27,.51l4.04,11.67-5.69,9.86-5.18-5.98,5.56-16.06Zm-3.56,27.53l-14.93,25.87,10.66-30.79,4.27,4.93Zm4.49,5.19l16.91,19.52-42.26,24.4,25.36-43.92Zm11.15-19.31l3.27-5.66c11.76,7.39,21.75,17.35,29.15,29.1l-20.25,11.69-12.17-35.13Zm59.38,68.15h-6.9c-.23-5.16-.85-10.21-1.84-15.14l8.74,15.14Zm108.58,21.81c.36,.22,.71,.44,1.07,.67l-1.64,.32,.57-.98Zm69.36-95.36l3.19,5.52-12.32,35.59-20.04-11.57c7.37-11.91,17.36-22.03,29.18-29.54Zm14.71,25.48l25.45,44.09-42.43-24.49,16.97-19.59Zm4.22-4.87l4.49-5.18,11.22,32.39-15.71-27.21Zm-3.18-5.5l-5.97-10.33,4.18-12.06c.46-.19,.93-.38,1.39-.57l5.79,16.73-5.4,6.23Zm5.25-24.99c6.36-2.06,13.03-3.44,19.91-4.06l-15.23,17.58-4.68-13.52Zm6.79-37.36l19.27-55.66v77.91l-19.27-22.25Zm-43.91-69.81l-2.15-6.22,32.3,6.22h-30.15Zm-6.35,0h-10.21l-9.19-10.62s.01-.1,.02-.14l16.77,3.23,2.61,7.53Zm-18.27-16.65c1.42-6.38,3.49-12.51,6.16-18.32l7.24,20.9-13.39-2.58Zm-13.28-7.98l-8.6-9.93,20.76-4c-3.58,5.04-7.66,9.7-12.16,13.93Zm-4.5,3.97c-.2,.16-.4,.32-.59,.48l-14.74-2.84-4.87-8.44,9.3-1.79,10.9,12.58Zm-23.38-16.29l-18.52-32.08,26.46,30.55-7.94,1.53Zm-70.23-1.14l-6.32-1.22,21.07-24.32-14.75,25.54Zm-3.17,5.5l-6.35,10.99-12.19,2.35c-.39-.31-.78-.62-1.17-.94l12.03-13.88,7.68,1.48Zm-24.25,8.48c-5.12-4.72-9.7-10.01-13.64-15.78l23.4,4.51-9.76,11.27Zm-13.16,8.49l-14.49,2.79,7.86-22.69c2.93,6.28,5.18,12.94,6.64,19.89Zm.62,5.99l-8.35,9.64h-11.21l2.18-6.29,17.38-3.35Zm-25.91,9.64h-24.15l25.87-4.98-1.73,4.98Zm-43.62,70.63l-17.72,20.46v-71.63l17.72,51.17Zm-.15,55.77l-17.57,50.72v-71.01l17.57,20.28Zm33.32,40l8.38,24.19h-50.27l41.9-24.19Zm9.7,9.67l12.58,14.52h-7.55l-5.03-14.52Zm-3.52-13.23l20.41-11.78c6.44,11.86,10.36,25.28,11.02,39.54h-7.39l-24.04-27.75Zm31.52,33.75c-.02,.85-.04,1.7-.08,2.54l-2.2-2.54h2.28Zm5.02,17.59l3.34,3.86c-2.47,2.2-4.83,4.53-7.06,6.97,1.15-3.58,2.11-7.25,2.85-11l.87,.17Zm7.27,8.39l8.69,10.03-21.58,4.15c3.8-5.16,8.12-9.92,12.89-14.18Zm4.6-3.86c.78-.61,1.57-1.21,2.37-1.79l9.86,1.9,6.35,10.99-7.68,1.48-10.89-12.58Zm21.75,16.6l14.75,25.54-21.07-24.32,6.32-1.22Zm70.19-1.15l7.99,1.54-26.62,30.73,18.63-32.27Zm3.17-5.5l4.86-8.42,12.53-2.41c.58,.44,1.16,.89,1.73,1.35l-9.77,11.28-9.35-1.8Zm23.69-5.59c4.13,3.76,7.92,7.89,11.31,12.33l-18.85-3.63,7.54-8.7Zm3.93-4.53l2.78-3.21,1.52-.29c.76,3.66,1.73,7.24,2.9,10.74-2.27-2.53-4.67-4.95-7.2-7.24Zm-.4-8.71l-8.39,1.61c-2.09-1.5-4.23-2.92-6.44-4.25l6.13-10.61h11.34c.05,3.2,.26,6.37,.61,9.49l-3.26,3.76Zm8.65-13.25h2.83l-2.73,3.15c-.05-1.04-.08-2.1-.1-3.15Zm.08-6c.65-13.97,4.43-27.13,10.64-38.81l20.62,11.9-23.31,26.91h-7.94Zm26.79-12.6l-4.36,12.6h-6.55l10.91-12.6Zm10.17-11.02l40.91,23.62h-49.08l8.18-23.62Zm33.81-39.75l19.12-22.07v77.29l-19.12-55.21Zm25.12-110.71l25.13,43.53-25.13,29.02v-72.55Zm-73.6-29.28l-8.94-25.81,62.6,36.14-53.67-10.33Zm-46.61-27.04l-35.56-41.06,62.22,35.93-26.66,5.13Zm-98.1-.83l-25.5-4.91,59.51-34.36-34.01,39.26Zm-48.76,29.1l-53.48,10.3,62.39-36.02-8.91,25.72Zm-71.34,101.56l-26.57-30.68,26.57-46.02v76.7Zm0,94.57l-26.82-46.45,26.82-30.96v77.42Zm67.34,11.99l1.96,5.65-29.35-5.65h27.39Zm6.35,0h10.67l8.89,10.26-17.15-3.3-2.41-6.96Zm19.15,16.29c-1.4,7.05-3.6,13.82-6.51,20.2l-7.96-22.99,14.47,2.79Zm27.25,24.96l38.28,44.2-66.98-38.67,28.7-5.53Zm98.1-.82l28.28,5.44c.11,.18,.22,.36,.34,.54l-.21,.61-68.24,39.4,39.84-45.99Zm26.19-23.11l13.38-2.58-7.34,21.19c-2.65-5.9-4.69-12.13-6.05-18.61Zm-1.04-5.91s0-.02,0-.02l9.86-11.39h9.67l-2.84,8.2-16.69,3.21Zm25.88-11.41h33.39l-35.77,6.89,2.39-6.89Zm69.18-88.44l25.38,29.3-25.38,43.96v-73.27Zm28.31-42.61l11.11,19.25c-11.15,5.94-23.66,9.65-36.92,10.55l25.81-29.8Zm-104.93-107.63l38.51-7.41,25.67,44.47-64.18-37.05Zm-81.63-47.13h51.82l12.95,37.4-64.77-37.4Zm-88.98,38.72l13.41-38.72h53.66l-67.07,38.72Zm-81.5,47.05l27.19-47.1,40.79,7.85-67.98,39.25Zm-39.43,68.29l26.44,30.53c-13.62-.83-26.45-4.63-37.85-10.76l11.41-19.76Zm-.25,67.8l-11.01-19.07c11.09-5.94,23.53-9.68,36.73-10.62l-25.72,29.69Zm101.56,76.14l10.01,28.92-70.13-40.49,60.12,11.57Zm83.66,78.36h-50.17l-12.54-36.2,62.71,36.2Zm88.37-34.88l-12.08,34.88h-48.33l60.41-34.88Zm11.3-14.3l9.68-27.95,60.31-11.61-68.89,39.77-1.1-.21Zm83.52-44.56l29.54-51.16,57.83,66.77c-1.63,10.6-5.08,20.62-10.01,29.71l-77.36-44.66v-.65Zm92.41,21.43l3.36,3.88c-2.06,1.87-4.03,3.84-5.92,5.88,1.01-3.19,1.87-6.45,2.56-9.76Zm7.29,8.42l49.15,56.75-65.12-37.6c4.45-7.08,9.83-13.53,15.97-19.15Zm4.56-3.9c2.9-2.33,5.95-4.49,9.12-6.46l29.41,50.95-38.54-44.49Zm-3.93-4.54l-6.65-7.68c.5-4,.76-8.08,.76-12.21,0-6-.54-11.87-1.58-17.57l17.52,30.34c-3.5,2.17-6.86,4.54-10.05,7.12Zm-52.86-103.65l3.59-6.22,8.78,15.2c-3.88-3.3-8.01-6.31-12.37-8.99Zm-5.21-2.98c-7.58-4.04-15.75-7.12-24.34-9.06,8.65-1.96,16.87-5.06,24.49-9.14l5.18,8.97-5.33,9.23Zm5.35-21.2c4.16-2.56,8.11-5.43,11.83-8.57l-8.39,14.53-3.44-5.96Zm45.94-96.8l5.65-6.52c3.33,2.77,6.86,5.32,10.54,7.64l-16.79,29.09c.98-5.55,1.49-11.25,1.49-17.07,0-4.45-.3-8.84-.88-13.14Zm9.57-11.05l40.91-47.23-31.29,54.2c-3.36-2.12-6.57-4.45-9.61-6.97Zm-23.04-28.46c-3.5-6.7-6.21-13.88-7.98-21.42l67.63-13.02-59.65,34.44Zm-12.37-14.61c-1.62-1.72-3.31-3.39-5.05-4.99l3.54-.68c.45,1.91,.95,3.8,1.51,5.67Zm6.44,18.03l-77.45,44.72-28.6-49.53,87.1-16.77c7.38,6.16,13.78,13.44,18.94,21.59Zm-109.22-10.32l-12.48-21.61c13.03-7.05,27.93-11.06,43.76-11.06,19.54,0,37.68,6.11,52.61,16.52l-83.89,16.15Zm-6.24,1.2l-39.44,7.59c7.28-11,16.84-20.35,28.02-27.38l11.42,19.78Zm-58.79-34.22h22.13c-.38,13.39-3.63,26.08-9.16,37.47l-12.98-37.47Zm-2.08-6l-27.54-79.53c29.7,14.55,50.47,44.59,51.72,79.53h-24.18Zm-6.35,0h-58.62v-88.82c10.52,.34,20.6,2.45,29.95,6.04l28.67,82.78Zm-37.5-91.87c1.74-.44,3.47-.93,5.18-1.46l1.14,3.3c-2.08-.68-4.18-1.29-6.32-1.83Zm-21.12-3.05V116.05l24.33,70.25c-7.73,2.4-15.89,3.81-24.33,4.08Zm-6,0c-8.44-.27-16.6-1.68-24.33-4.08l24.33-70.25v74.33Zm-21.12,3.05c-2.13,.54-4.24,1.15-6.32,1.83l1.14-3.3c1.71,.53,3.43,1.02,5.18,1.46Zm21.12,3.05v88.82h-58.62l28.67-82.78c9.35-3.59,19.43-5.7,29.95-6.04Zm-64.97,88.82h-24.18c1.25-34.94,22.03-64.98,51.72-79.53l-27.54,79.53Zm-2.08,6l-12.98,37.47c-5.53-11.39-8.77-24.07-9.16-37.47h22.13Zm-58.19,33.18l10.94-18.95c10.9,6.79,20.28,15.78,27.52,26.35l-38.46-7.41Zm-6.23-1.2l-82.83-15.95c14.7-9.9,32.38-15.69,51.4-15.69,15.69,0,30.47,3.94,43.42,10.88l-11.98,20.75Zm-3.17,5.5l-29.5,51.09-77.14-44.54c5.48-8.81,12.4-16.64,20.43-23.15l86.2,16.6Zm-100.42-11.47c.75-2.46,1.41-4.95,1.96-7.49l4.71,.91c-2.33,2.09-4.56,4.28-6.68,6.58Zm-12.44,14.43l-64.16-37.04,72.66,13.99c-1.81,8.14-4.7,15.87-8.51,23.05Zm-65.67-22.75l43.48,50.2c-3.22,2.71-6.62,5.21-10.19,7.46l-33.29-57.67Zm28.12,60.71c-12.33,6.72-26.36,10.7-41.26,11.13v-82.59l41.26,71.46Zm19.29-5.97l5.59,6.46c-.63,4.47-.96,9.04-.96,13.69,0,6.22,.59,12.31,1.7,18.21l-17.45-30.23c3.9-2.45,7.61-5.17,11.12-8.13Zm51.13,103.6l-3.56,6.17-8.82-15.27c3.87,3.34,8.01,6.39,12.38,9.1Zm5.19,3.02c7.72,4.17,16.05,7.34,24.83,9.32-8.72,1.98-17,5.11-24.68,9.24l-5.44-9.42,5.28-9.15Zm-5.04,21.57c-4.57,2.83-8.89,6.03-12.93,9.54l9.22-15.97,3.71,6.42Zm-45.81,96.32l-6.58,7.6c-3.37-2.76-6.92-5.3-10.64-7.59l18.19-31.5c-1.18,6.07-1.8,12.33-1.8,18.73,0,4.33,.28,8.59,.83,12.77Zm-10.51,12.13l-41.13,47.48,31.41-54.41c3.39,2.1,6.63,4.42,9.71,6.93Zm22.68,27.23c3.77,6.87,6.69,14.28,8.62,22.07l-70.3,13.54,61.68-35.61Zm12.5,13.82c1.99,2.2,4.09,4.3,6.27,6.3l-4.24,.82c-.59-2.41-1.27-4.78-2.03-7.12Zm-5.82-17.67l77.3-44.63,29.12,50.44-86.88,16.73c-7.67-6.4-14.28-14.01-19.54-22.54Zm87.35-39.22l63.26,36.52-37.96,7.31-25.31-43.83Zm68.14,41.7c-7.32,11.05-16.95,20.45-28.2,27.48l-11.46-19.85,39.66-7.64Zm19.37,41.46h-22.54c.59-13.3,4.01-25.87,9.68-37.13l12.86,37.13Zm2.08,6l28.26,81.59c-30.75-14.52-52.24-45.55-52.95-81.59h24.69Zm6.35,0h58.15v90.32c-10.09-.32-19.79-2.27-28.82-5.6l-29.34-84.71Zm37.04,93.37c-1.44,.37-2.87,.76-4.29,1.19l-.92-2.67c1.72,.54,3.45,1.03,5.21,1.47Zm21.12,3.05v71.49l-23.44-67.68c7.46-2.24,15.32-3.55,23.44-3.81Zm6,0c8.12,.26,15.98,1.58,23.44,3.81l-23.44,67.68v-71.49Zm21.12-3.05c1.76-.44,3.49-.93,5.21-1.47l-.92,2.67c-1.42-.43-2.84-.83-4.29-1.19Zm-21.12-3.05v-89.45l1.51-.87h56.65l-29.34,84.71c-9.03,3.33-18.72,5.28-28.82,5.6Zm64.5-90.32h24.69c-.71,36.04-22.2,67.07-52.95,81.59l28.26-81.59Zm2.08-6l12.86-37.13c5.66,11.26,9.09,23.84,9.68,37.13h-22.54Zm19.19-42.65l40.44,7.79-11.94,20.68c-11.49-7.25-21.28-16.97-28.61-28.4l.11-.06Zm7.94-4.58l59.46-34.33-23.79,41.2-35.68-6.87Zm69.86-40.33l.56-.32,77.33,44.65c-4.95,7.87-11.06,14.94-18.08,20.98l-87.75-16.9,27.94-48.4Zm71.82,62.04c-.55,1.74-1.06,3.5-1.52,5.27l-3.11-.6c1.59-1.51,3.14-3.07,4.63-4.68Zm12.45-14.04l57.18,33.01-65.24-12.56c1.88-7.19,4.6-14.05,8.06-20.45Zm37.88-37.68c12.17-6.5,25.96-10.35,40.59-10.78v81.09l-40.59-70.31Zm-3-5.2l-61.05-105.74,60.39-104.6c13.22,7.23,28.26,11.5,44.26,11.94v186.82c-15.73,.43-30.54,4.57-43.59,11.58Zm2.34-215.54l41.26-71.46v82.59c-14.9-.43-28.92-4.41-41.26-11.13Zm18.51-78.39l-65.5,12.61c-.69-4.12-1.11-8.33-1.23-12.61h66.73Zm-66.7-6c.52-14.65,4.48-28.44,11.08-40.58l70.29,40.58h-81.37Zm-120.27,12.21l-3.58-6.21h17.5c-4.82,1.72-9.47,3.79-13.91,6.21Zm-5.18,3.03c-7.62,4.77-14.55,10.55-20.58,17.16,2.6-8.38,4.1-17.23,4.35-26.4h10.9l5.33,9.24Zm-16.26-15.24c-.19-5.53-.83-10.94-1.89-16.21l9.36,16.21h-7.46Zm-60.43-87.34l-2.76-7.97c4.26-1.63,8.38-3.54,12.33-5.72l17.87,30.95c-8.07-7.17-17.33-13.03-27.43-17.25Zm-4.73-13.65l-21.47-61.98,32.76,56.74c-3.62,1.99-7.39,3.75-11.29,5.24Zm-24.79-79.75l70.93,40.95c-7.39,12.32-17.58,22.78-29.68,30.5l-41.25-71.44Zm-19.73,17.77l-21.47,61.98c-3.9-1.5-7.67-3.25-11.29-5.24l32.76-56.74Zm-37.92,53.68c-12.1-7.72-22.28-18.18-29.68-30.5l70.93-40.95-41.25,71.44Zm14.49,13.98l-2.76,7.97c-10.11,4.22-19.36,10.08-27.43,17.26l17.87-30.95c3.95,2.18,8.07,4.09,12.33,5.72Zm-63.19,95.31h-7.46l9.36-16.21c-1.07,5.26-1.71,10.68-1.89,16.21Zm-.03,6c.24,8.91,1.67,17.52,4.14,25.69-5.97-6.41-12.78-12.02-20.25-16.66l5.22-9.03h10.9Zm-21.31,6.03c-4.34-2.34-8.87-4.35-13.57-6.03h17.05l-3.48,6.03Zm-121.39,5.47l-59.68-11.49h60.73c-.11,3.89-.46,7.73-1.04,11.49Zm-80.35-17.49l70.29-40.58c6.61,12.15,10.56,25.93,11.08,40.58H109Zm36.19,89.59l60.39,104.6-61.05,105.74c-13.06-7.01-27.87-11.15-43.59-11.58v-186.82c15.99-.44,31.04-4.71,44.26-11.94Zm-3.66,215.54l-40.59,70.31v-81.09c14.63,.42,28.42,4.28,40.59,10.78Zm-15.58,77.24l63.05-12.14c.71,3.96,1.16,8.02,1.34,12.14H125.94Zm64.47,6c-.3,15.11-4.25,29.34-11,41.85l-72.48-41.85h83.49Zm21.31-22.52l83.66-16.11,12.51,21.66c-12.98,6.99-27.82,10.96-43.57,10.96-19.54,0-37.67-6.11-52.6-16.52Zm99.17,10.75l3.33,5.76h-16.08c4.41-1.62,8.67-3.55,12.75-5.76Zm5.19-3.02c7.65-4.76,14.59-10.54,20.65-17.15-2.65,8.23-4.25,16.92-4.62,25.93h-10.96l-5.07-8.78Zm15.96,14.78c.1,5.26,.61,10.43,1.5,15.46l-8.93-15.46h7.42Zm61.62,89.3l2.48,7.17c-4.33,1.61-8.52,3.51-12.54,5.69l-16.79-29.08c7.96,6.75,17.01,12.26,26.85,16.22Zm4.45,12.85l21.76,62.82-33.26-57.61c3.69-1.99,7.53-3.74,11.5-5.22Zm24.96,80.37l-71.83-41.47c7.51-12.44,17.88-22.96,30.18-30.67l41.65,72.14Zm17.54-17.55l21.76-62.82c3.97,1.48,7.81,3.23,11.5,5.22l-33.26,57.61Zm38.44-54.59c12.3,7.71,22.67,18.23,30.18,30.67l-71.83,41.47,41.65-72.14Zm-14.72-13.91l2.48-7.17c9.83-3.96,18.88-9.47,26.85-16.22l-16.79,29.08c-4.02-2.18-8.21-4.08-12.54-5.69Zm64.1-96.48h7.42l-8.93,15.46c.9-5.03,1.41-10.2,1.5-15.46Zm-.07-6c-.39-9.29-2.07-18.25-4.88-26.7,6.13,6.84,13.21,12.81,21.02,17.72l-5.19,8.99h-10.96Zm21.32-5.95c4.19,2.29,8.56,4.28,13.09,5.95h-16.53l3.43-5.95Zm3-5.2l13-22.52,84.69,16.31c-15.15,10.92-33.73,17.36-53.79,17.36-15.89,0-30.85-4.04-43.91-11.14Zm119.01-2.11l68.84,13.25h-70.4c.2-4.51,.73-8.93,1.56-13.25Zm81.86,19.25l-72.48,41.85c-6.76-12.5-10.71-26.74-11-41.85h83.49Zm8.71-477.24c50.85,0,92.22,41.37,92.22,92.22s-39.6,90.41-88.93,92.15v-92.57c0-1.07-.57-2.06-1.5-2.6l-.21-.12c-.33-.31-.73-.54-1.15-.66l-78.46-45.3c16.35-25.89,45.21-43.12,78.03-43.12Zm-86.26,45.29c-7.12,13.03-11.36,27.84-11.89,43.58h-121.31l-60.09-104.09c13.01-8.25,23.95-19.47,31.87-32.69l161.43,93.2ZM338.01,98.22c0-50.85,41.37-92.22,92.22-92.22s92.22,41.37,92.22,92.22c0,15.15-3.67,29.45-10.17,42.07l-80.52-46.49s-.1-.05-.15-.07c-.16-.08-.32-.15-.49-.2-.06-.02-.12-.04-.19-.06-.23-.06-.47-.09-.71-.09s-.48,.04-.71,.09c-.06,.02-.13,.04-.19,.06-.17,.05-.33,.12-.49,.2-.05,.03-.1,.04-.15,.07l-80.52,46.49c-6.5-12.62-10.17-26.92-10.17-42.07Zm7.9,50.31c7.92,13.23,18.86,24.45,31.87,32.69l-60.09,104.09h-121.31c-.53-15.74-4.77-30.55-11.89-43.58l161.43-93.2ZM6,288.65c0-50.85,41.37-92.22,92.22-92.22,32.82,0,61.68,17.23,78.03,43.12l-79.82,46.08c-.93,.54-1.5,1.53-1.5,2.6v92.57c-49.33-1.74-88.93-42.41-88.93-92.15Zm92.22,475.4c-50.85,0-92.22-41.37-92.22-92.22s39.6-90.41,88.93-92.15v92.27c0,1.07,.57,2.06,1.5,2.6l79.96,46.16c-16.32,26.01-45.26,43.34-78.16,43.34Zm86.39-45.52c7.27-13.39,11.5-28.65,11.8-44.85h121.27l60.73,105.19c-13.21,8.24-24.33,19.52-32.37,32.87l-161.44-93.2Zm337.84,143.74c0,50.85-41.37,92.22-92.22,92.22s-92.22-41.37-92.22-92.22c0-15.24,3.72-29.62,10.29-42.3l80.43,46.43c.46,.27,.98,.4,1.5,.4s1.04-.13,1.5-.4l80.43-46.43c6.57,12.68,10.29,27.06,10.29,42.3Zm-8.03-50.54c-8.04-13.34-19.16-24.63-32.37-32.87l60.73-105.19h121.27c.3,16.2,4.54,31.46,11.81,44.85l-161.44,93.2Zm247.82-47.68c-32.91,0-61.84-17.33-78.17-43.34l79.96-46.16c.93-.54,1.5-1.53,1.5-2.6v-92.27c49.33,1.74,88.93,42.41,88.93,92.15s-41.37,92.22-92.22,92.22Z"/></g><text x="0" y="975.49" fill="#000000" font-size="5px" font-weight="bold" font-family="'Helvetica Neue', Helvetica, Arial-Unicode, Arial, Sans-serif">Created by Vital Intent</text><text x="0" y="980.49" fill="#000000" font-size="5px" font-weight="bold" font-family="'Helvetica Neue', Helvetica, Arial-Unicode, Arial, Sans-serif">from the Noun Project</text></svg>