<svg xmlns="http://www.w3.org/2000/svg" width="40" height="40" viewBox="0 0 40 40" fill="none">
  <path d="M18.3333 10H8.33333C7.00724 10 5.73559 10.5268 4.79791 11.4645C3.86024 12.4021 3.33333 13.6739 3.33333 15V21.6667C3.33333 22.9927 3.86024 24.2645 4.79791 25.2022C5.73559 26.1399 7.00724 26.6667 8.33333 26.6667H13.3333C14.2174 26.6667 15.0652 27.0179 15.6904 27.6431C16.3155 28.2682 16.6667 29.116 16.6667 30V33.3333C16.6667 33.7754 16.8423 34.1993 17.1548 34.5118C17.4674 34.8244 17.8913 35 18.3333 35" stroke="#BFA8D9" stroke-width="3" stroke-linecap="round" stroke-linejoin="round"/>
  <path d="M36.6667 10H26.6667C25.3406 10 24.0689 10.5268 23.1312 11.4645C22.1936 12.4021 21.6667 13.6739 21.6667 15V21.6667C21.6667 22.9927 22.1936 24.2645 23.1312 25.2022C24.0689 26.1399 25.3406 26.6667 26.6667 26.6667H31.6667C32.5507 26.6667 33.3986 27.0179 34.0237 27.6431C34.6488 28.2682 35 29.116 35 30V33.3333C35 33.7754 35.1756 34.1993 35.4882 34.5118C35.8007 34.8244 36.2246 35 36.6667 35" stroke="#BFA8D9" stroke-width="3" stroke-linecap="round" stroke-linejoin="round"/>
</svg>
